<?xml version="1.0" encoding="utf-8"?>
<!-- Generator: Adobe Illustrator 23.0.3, SVG Export Plug-In . SVG Version: 6.00 Build 0)  -->
<svg version="1.1" id="Capa_1" xmlns="http://www.w3.org/2000/svg" xmlns:xlink="http://www.w3.org/1999/xlink" x="0px" y="0px"
	 viewBox="0 0 127 117" style="enable-background:new 0 0 127 117;" xml:space="preserve">
<style type="text/css">
	.st0{fill:#00B0AB;}
	.st1{fill:#00938C;}
	.st2{fill:none;}
	.st3{fill:#FFFFFF;}
	.st4{font-family:'Lato-Heavy';}
	.st5{font-size:30px;}
</style>
<g>
	<circle class="st0" cx="64" cy="61" r="42.5"/>
	<path class="st1" d="M64,19c23.16,0,42,18.84,42,42s-18.84,42-42,42S22,84.16,22,61S40.84,19,64,19 M64,18c-23.75,0-43,19.25-43,43
		c0,23.75,19.25,43,43,43c23.75,0,43-19.25,43-43C107,37.25,87.75,18,64,18L64,18z"/>
</g>
<rect x="44.85" y="52.44" class="st2" width="40.3" height="25.12"/>
<text transform="matrix(1 0 0 1 44.8474 74.8343)" class="st3 st4 st5">Of</text>
</svg>
